<svg width="31" height="31" viewBox="0 0 31 31" fill="none" xmlns="http://www.w3.org/2000/svg">
<rect width="31" height="31" rx="3" fill="#1B1D75"/>
<path d="M3.95734 9.70034C5.03249 7.56073 6.68124 5.76212 8.71946 4.50534C10.7577 3.24855 13.1051 2.58309 15.4997 2.58325C18.9807 2.58325 21.9051 3.86329 24.1409 5.94804L20.4377 9.65254C19.0983 8.3725 17.3958 7.72021 15.4997 7.72021C12.1349 7.72021 9.28676 9.99354 8.2728 13.0458C8.01447 13.8208 7.86722 14.6474 7.86722 15.4999C7.86722 16.3524 8.01447 17.1791 8.2728 17.9541C9.28805 21.0076 12.1349 23.2796 15.4997 23.2796C17.237 23.2796 18.7159 22.8211 19.8733 22.0461C20.5442 21.6043 21.1186 21.0311 21.5617 20.3611C22.0049 19.6911 22.3075 18.9381 22.4514 18.1478H15.4997V13.1517H27.6646C27.817 13.9964 27.8997 14.8773 27.8997 15.7931C27.8997 19.7275 26.4918 23.0394 24.0479 25.2869C21.9115 27.2605 18.9872 28.4166 15.4997 28.4166C13.8032 28.4173 12.1233 28.0836 10.5559 27.4347C8.98845 26.7859 7.56426 25.8345 6.3647 24.6349C5.16514 23.4353 4.21373 22.0111 3.56485 20.4437C2.91597 18.8763 2.58233 17.1964 2.58301 15.4999C2.58301 13.4152 3.08159 11.4441 3.95734 9.70034Z" fill="white"/>
</svg>
