<svg width="31" height="31" viewBox="0 0 31 31" fill="none" xmlns="http://www.w3.org/2000/svg">
<rect width="31" height="31" rx="3" fill="#1B1D75"/>
<path d="M10.0747 2.58325H20.9247C25.058 2.58325 28.4163 5.94159 28.4163 10.0749V20.9249C28.4163 22.9118 27.627 24.8174 26.2221 26.2223C24.8171 27.6273 22.9116 28.4166 20.9247 28.4166H10.0747C5.94134 28.4166 2.58301 25.0583 2.58301 20.9249V10.0749C2.58301 8.08801 3.37231 6.18247 4.77727 4.77751C6.18223 3.37255 8.08776 2.58325 10.0747 2.58325ZM9.81634 5.16659C8.58308 5.16659 7.40034 5.65649 6.5283 6.52854C5.65625 7.40058 5.16634 8.58333 5.16634 9.81659V21.1833C5.16634 23.7537 7.24592 25.8333 9.81634 25.8333H21.183C22.4163 25.8333 23.599 25.3433 24.4711 24.4713C25.3431 23.5993 25.833 22.4165 25.833 21.1833V9.81659C25.833 7.24617 23.7534 5.16659 21.183 5.16659H9.81634ZM22.2809 7.10409C22.7091 7.10409 23.1198 7.27419 23.4226 7.57699C23.7254 7.87978 23.8955 8.29045 23.8955 8.71867C23.8955 9.14688 23.7254 9.55756 23.4226 9.86035C23.1198 10.1631 22.7091 10.3333 22.2809 10.3333C21.8527 10.3333 21.442 10.1631 21.1392 9.86035C20.8364 9.55756 20.6663 9.14688 20.6663 8.71867C20.6663 8.29045 20.8364 7.87978 21.1392 7.57699C21.442 7.27419 21.8527 7.10409 22.2809 7.10409ZM15.4997 9.04159C17.2125 9.04159 18.8552 9.72202 20.0664 10.9332C21.2776 12.1444 21.958 13.7871 21.958 15.4999C21.958 17.2128 21.2776 18.8555 20.0664 20.0667C18.8552 21.2778 17.2125 21.9583 15.4997 21.9583C13.7868 21.9583 12.1441 21.2778 10.9329 20.0667C9.72177 18.8555 9.04134 17.2128 9.04134 15.4999C9.04134 13.7871 9.72177 12.1444 10.9329 10.9332C12.1441 9.72202 13.7868 9.04159 15.4997 9.04159ZM15.4997 11.6249C14.472 11.6249 13.4863 12.0332 12.7596 12.7599C12.0329 13.4866 11.6247 14.4722 11.6247 15.4999C11.6247 16.5276 12.0329 17.5133 12.7596 18.24C13.4863 18.9667 14.472 19.3749 15.4997 19.3749C16.5274 19.3749 17.513 18.9667 18.2397 18.24C18.9664 17.5133 19.3747 16.5276 19.3747 15.4999C19.3747 14.4722 18.9664 13.4866 18.2397 12.7599C17.513 12.0332 16.5274 11.6249 15.4997 11.6249Z" fill="white"/>
</svg>
