<svg width="31" height="31" viewBox="0 0 31 31" fill="none" xmlns="http://www.w3.org/2000/svg">
<g clip-path="url(#clip0_742_2979)">
<path d="M0.504883 9.24915C0.502352 9.13099 0.529864 9.01469 0.583008 8.91125C0.635379 8.80933 0.710579 8.7234 0.801758 8.66125L0.868164 8.62317L0.875 8.61926L0.882812 8.61438C2.06257 7.86487 5.98279 5.41565 6.5918 5.06946L6.59766 5.06555L6.60449 5.06165C6.66875 5.02266 6.74054 5.00124 6.81348 4.99915C6.88251 5.00062 6.95059 5.01785 7.01367 5.04993C7.02261 5.05589 7.03308 5.06385 7.0459 5.07239C7.08651 5.09944 7.14655 5.13899 7.22266 5.18958C7.37505 5.29086 7.59353 5.43646 7.8584 5.61145C8.3881 5.96141 9.1037 6.43155 9.8457 6.91223C10.5872 7.39259 11.358 7.885 11.9971 8.27844C12.3163 8.47497 12.6059 8.64858 12.8438 8.7843C13.0557 8.90523 13.2513 9.00819 13.3936 9.0675V9.06848C14.0471 9.37585 14.7596 9.53001 15.4795 9.52063V9.52161C15.4827 9.52168 15.4861 9.52057 15.4893 9.52063C15.4922 9.52059 15.4951 9.52068 15.498 9.52063C16.3153 9.53495 17.121 9.33193 17.8379 8.93274L17.8389 8.93372C18.2716 8.70043 19.815 7.7206 21.2266 6.81946C21.9398 6.36414 22.6262 5.92382 23.1396 5.5968C23.3963 5.43337 23.608 5.29926 23.7568 5.20618C23.802 5.17793 23.8412 5.15446 23.873 5.13489H23.8809L24.001 5.05969C24.0529 5.02755 24.1127 5.01112 24.1719 5.01184H24.1748C24.2489 5.01226 24.3225 5.03376 24.3867 5.07336L24.4023 5.08313C25.1035 5.47977 29.9617 8.52417 30.1738 8.66223V8.66321L30.1846 8.66907C30.2781 8.72689 30.3564 8.80978 30.4111 8.91028C30.4659 9.01097 30.4944 9.12557 30.4932 9.24231V20.1515C30.4805 20.2539 30.4443 20.351 30.3867 20.4337C30.3261 20.5206 30.2452 20.5887 30.1533 20.632L30.1367 20.6398L30.1211 20.6486C29.8744 20.787 26.7103 22.8156 23.4346 24.9054C20.134 27.0111 16.7059 29.1877 15.8838 29.6564L15.8711 29.6642C15.757 29.7334 15.6285 29.7693 15.498 29.7706C15.3684 29.7711 15.2395 29.7373 15.125 29.671C14.3054 29.1847 10.8777 27.0037 7.58008 24.9034C5.93138 23.8534 4.31875 22.8259 3.08984 22.046C2.4755 21.6562 1.95641 21.3276 1.57617 21.089C1.21065 20.8597 0.945349 20.6955 0.864258 20.6534L0.856445 20.6495L0.849609 20.6456L0.782227 20.6085C0.717331 20.5665 0.660231 20.5112 0.614258 20.4454C0.555173 20.3608 0.517793 20.2613 0.504883 20.1564V9.24915Z" fill="white" stroke="#1B1D75"/>
<path d="M30.4932 20.1595C30.481 20.2638 30.4443 20.3627 30.3857 20.4467C30.325 20.5336 30.2443 20.6017 30.1523 20.6449L30.1436 20.6488L30.1348 20.6537C30.0539 20.6957 29.7884 20.8598 29.4229 21.0892C29.0428 21.3278 28.5241 21.6565 27.9102 22.0463C26.6818 22.8262 25.0698 23.8536 23.4219 24.9037C20.2007 26.9562 16.8546 29.0846 15.9395 29.6342V17.6967L30.4932 9.51306V20.1595Z" fill="white" stroke="#1B1D75"/>
<path d="M0.498047 20.1187C0.510723 20.2186 0.546263 20.3134 0.602539 20.394C0.662082 20.4794 0.741802 20.546 0.832031 20.5884L0.84082 20.5923L0.849609 20.5972C0.929887 20.6389 1.19243 20.801 1.55371 21.0278C1.92972 21.2639 2.44323 21.5893 3.05078 21.9751C4.26602 22.7467 5.86081 23.7634 7.49121 24.8022C10.6681 26.8266 13.9682 28.9244 14.8857 29.4761V17.6792L0.498047 9.58936V20.1187Z" fill="white" stroke="#1B1D75"/>
</g>
<defs>
<clipPath id="clip0_742_2979">
<rect width="31" height="31" fill="white"/>
</clipPath>
</defs>
</svg>
