<svg width="44" height="44" viewBox="0 0 44 44" fill="none" xmlns="http://www.w3.org/2000/svg">
<g clip-path="url(#clip0_742_7503)">
<path d="M0.506836 13.132C0.502522 12.9296 0.549203 12.7298 0.640625 12.5519C0.73126 12.3756 0.86269 12.2265 1.02246 12.1183L1.125 12.0587L1.13281 12.0548L1.14062 12.0499C2.81326 10.9873 8.38174 7.50751 9.25195 7.01282L9.25781 7.00891L9.26465 7.005C9.38921 6.92933 9.52982 6.88851 9.67285 6.88586C9.80512 6.88834 9.93514 6.92178 10.0547 6.98352C10.0695 6.99337 10.0904 7.00768 10.1172 7.02551C10.1748 7.06386 10.2594 7.11986 10.3672 7.19153C10.5833 7.33518 10.8938 7.54095 11.2695 7.78918C12.0211 8.28573 13.0363 8.95303 14.0889 9.63489C15.141 10.3165 16.2336 11.0142 17.1387 11.5714C17.5909 11.8498 17.9992 12.0953 18.334 12.2863C18.641 12.4614 18.9109 12.6035 19.0986 12.6808V12.6818C19.9999 13.1057 20.983 13.3179 21.9756 13.3038V13.3048C21.9785 13.3049 21.9815 13.3038 21.9844 13.3038C21.9876 13.3038 21.9909 13.3039 21.9941 13.3038C23.1201 13.3247 24.2309 13.0458 25.2188 12.4952L25.2197 12.4962C25.8245 12.1702 28.0056 10.7857 30.0146 9.50305C31.0266 8.857 32.0025 8.23196 32.7314 7.7677C33.0956 7.53576 33.3964 7.34462 33.6084 7.21204C33.6985 7.15569 33.7714 7.1109 33.8252 7.07825H33.835L33.9561 7.00403C34.0634 6.93758 34.1867 6.90297 34.3105 6.90442H34.3145C34.4579 6.90529 34.599 6.94552 34.7227 7.02161L34.7314 7.02747L34.7393 7.03137C35.7411 7.5981 42.6482 11.9276 42.9424 12.1193V12.1202L42.9521 12.1261C43.1164 12.2276 43.2537 12.3726 43.3486 12.547C43.4435 12.7214 43.4933 12.9191 43.4912 13.1202V28.6115C43.4711 28.7966 43.4054 28.973 43.3008 29.1232C43.194 29.2763 43.0508 29.3966 42.8867 29.4738L42.8711 29.4816L42.8555 29.4904C42.5136 29.6821 38.0311 32.5554 33.374 35.5265C28.6927 38.513 23.8209 41.6072 22.6484 42.2755H22.6475L22.6357 42.2823C22.4417 42.4002 22.2225 42.4627 21.999 42.465C21.8327 42.4657 21.6678 42.4341 21.5137 42.3702L21.3633 42.295C20.2004 41.6053 15.3274 38.5049 10.6465 35.5236C8.30624 34.0331 6.01756 32.5747 4.27344 31.4679C3.40144 30.9145 2.66424 30.4488 2.125 30.1105C1.60082 29.7816 1.23514 29.5558 1.12988 29.5011L1.12207 29.4972L1.11523 29.4933L0.996094 29.4259C0.881199 29.3514 0.779819 29.2542 0.699219 29.1388C0.59413 28.9881 0.528235 28.8118 0.506836 28.6261V13.1427H0.507812L0.506836 13.132Z" fill="white" stroke="#1E1EB5"/>
<path d="M43.4902 28.6343C43.4694 28.8177 43.4046 28.9923 43.3008 29.1411C43.1939 29.2943 43.05 29.4145 42.8857 29.4917L42.877 29.4956L42.8682 29.5005C42.7633 29.5549 42.3975 29.7816 41.873 30.1108C41.3341 30.4491 40.5979 30.915 39.7266 31.4683C37.9833 32.5751 35.6956 34.0335 33.3564 35.5239C28.6769 38.5057 23.8053 41.6064 22.6436 42.2954C22.5706 42.3377 22.4931 42.3693 22.4141 42.396V24.9956L43.4902 13.144V28.6343Z" fill="white" stroke="#1E1EB5"/>
<path d="M0.49707 28.5682C0.517645 28.7485 0.581571 28.92 0.683594 29.0663C0.788852 29.2171 0.930124 29.336 1.0918 29.412L1.10059 29.4159L1.10938 29.4208C1.21354 29.4749 1.57531 29.6988 2.09375 30.0243C2.62693 30.359 3.35556 30.8196 4.21777 31.3671C5.94237 32.4621 8.20539 33.9052 10.5195 35.3798C15.1496 38.33 19.9702 41.3976 21.1191 42.079C21.1887 42.1193 21.2626 42.1497 21.3379 42.1757V24.9706L0.49707 13.2518V28.5682Z" fill="white" stroke="#1E1EB5"/>
</g>
<defs>
<clipPath id="clip0_742_7503">
<rect width="44" height="44" fill="white"/>
</clipPath>
</defs>
</svg>
