<svg width="31" height="31" viewBox="0 0 31 31" fill="none" xmlns="http://www.w3.org/2000/svg">
<path d="M10.9795 9.04167C10.9795 6.90654 12.917 3.875 15.5003 3.875C18.0837 3.875 20.0212 6.90654 20.0212 9.04167M5.16699 9.04167L6.28687 24.7264C6.33365 25.379 6.62634 25.9896 7.10583 26.4348C7.58532 26.88 8.21589 27.1267 8.8702 27.125H22.1434C22.7977 27.1267 23.4282 26.88 23.9077 26.4348C24.3872 25.9896 24.6799 25.379 24.7267 24.7264L25.8466 9.04167H5.17991H5.16699Z" stroke="white" stroke-width="2" stroke-linecap="round" stroke-linejoin="round"/>
<path d="M12.2715 21.9583C12.8049 22.555 13.5632 23.25 15.5007 23.25C17.4382 23.25 18.7298 22.0913 18.7298 20.6666C18.7298 19.2419 17.4382 18.7291 15.5007 18.0833C13.5632 17.4375 12.9173 16.1845 12.9173 15.5C12.9173 14.074 14.209 12.9166 15.5007 12.9166C16.7923 12.9166 17.4382 12.9166 18.7298 14.2083" stroke="white" stroke-width="2" stroke-linecap="round" stroke-linejoin="round"/>
</svg>
