<svg width="31" height="31" viewBox="0 0 31 31" fill="none" xmlns="http://www.w3.org/2000/svg">
<g clip-path="url(#clip0_742_4760)">
<path d="M12.5578 14.7362C11.6863 14.7362 10.8344 14.9946 10.1097 15.4788C9.38508 15.963 8.8203 16.6512 8.48679 17.4563C8.15328 18.2615 8.06601 19.1475 8.23604 20.0023C8.40606 20.857 8.82573 21.6422 9.44198 22.2584C10.0582 22.8747 10.8434 23.2943 11.6981 23.4644C12.5529 23.6344 13.4389 23.5471 14.2441 23.2136C15.0492 22.8801 15.7374 22.3153 16.2216 21.5907C16.7058 20.866 16.9642 20.0141 16.9642 19.1426V7.45117C17.6462 10.3762 19.6103 12.4156 22.8498 12.4156" stroke="white" stroke-width="3" stroke-linecap="round" stroke-linejoin="round"/>
<path d="M2.12613 22.7386C2.30121 24.2965 2.99934 25.7491 4.10652 26.8591C5.21371 27.9691 6.66453 28.671 8.22206 28.85C10.5913 29.1135 13.0204 29.3393 15.5004 29.3393C17.9804 29.3393 20.4117 29.1135 22.7788 28.8478C24.3363 28.6687 25.7871 27.9669 26.8943 26.8569C28.0015 25.7469 28.6996 24.2943 28.8747 22.7363C29.1271 20.3826 29.3397 17.9646 29.3397 15.5001C29.3397 13.0356 29.1271 10.6176 28.8747 8.26155C28.6996 6.70357 28.0015 5.25097 26.8943 4.14097C25.7871 3.03097 24.3363 2.32915 22.7788 2.15012C20.4095 1.88884 17.9804 1.66077 15.5004 1.66077C13.0204 1.66077 10.5891 1.88662 8.22206 2.15234C6.66453 2.33137 5.21371 3.03319 4.10652 4.14319C2.99934 5.25319 2.30121 6.70578 2.12613 8.26377C1.8737 10.6153 1.66113 13.0333 1.66113 15.5001C1.66113 17.9668 1.8737 20.3826 2.12613 22.7386Z" stroke="white" stroke-width="3" stroke-linecap="round" stroke-linejoin="round"/>
</g>
<defs>
<clipPath id="clip0_742_4760">
<rect width="31" height="31" fill="white"/>
</clipPath>
</defs>
</svg>
