<svg width="31" height="31" viewBox="0 0 31 31" fill="none" xmlns="http://www.w3.org/2000/svg">
<path fill-rule="evenodd" clip-rule="evenodd" d="M15.4997 4.52087C13.9652 4.52087 12.6289 5.37773 11.9463 6.64034C13.3581 6.80115 14.3517 7.10421 15.4997 7.64219C16.6476 7.10421 17.6413 6.80115 19.053 6.64034C18.3706 5.37822 17.0345 4.52087 15.4997 4.52087ZM15.4997 2.58337C12.9207 2.58337 10.7257 4.21685 9.88835 6.50358C8.54599 6.45837 6.85552 6.45837 4.60608 6.45837H4.52051C4.26358 6.45837 4.01717 6.56044 3.8355 6.74211C3.65382 6.92379 3.55176 7.1702 3.55176 7.42712V27.448C3.55176 27.7049 3.65382 27.9513 3.8355 28.133C4.01717 28.3146 4.26358 28.4167 4.52051 28.4167H19.3747C23.8332 28.4167 27.4476 24.8023 27.4476 20.3438V7.42712C27.4476 7.1702 27.3455 6.92379 27.1639 6.74211C26.9822 6.56044 26.7358 6.45837 26.4788 6.45837H26.3931C24.1438 6.45837 22.4534 6.45837 21.111 6.50358C20.2734 4.2162 18.0782 2.58337 15.4997 2.58337ZM5.48926 8.39604V26.4792H19.3747C22.7632 26.4792 25.5101 23.7323 25.5101 20.3438V8.39604C22.5228 8.39749 20.7274 8.41186 19.3953 8.552C17.9919 8.69974 17.1351 8.98423 15.9329 9.58534C15.7984 9.65258 15.6501 9.68759 15.4997 9.68759C15.3493 9.68759 15.201 9.65258 15.0665 9.58534C13.8643 8.98423 13.0074 8.69974 11.604 8.552C10.272 8.41186 8.47656 8.39749 5.48926 8.39604ZM8.07259 15.5C8.07259 13.895 9.37378 12.5938 10.9788 12.5938C12.5839 12.5938 13.8851 13.895 13.8851 15.5C13.8851 17.1051 12.5839 18.4063 10.9788 18.4063C9.37378 18.4063 8.07259 17.1051 8.07259 15.5ZM10.9788 10.6563C8.30364 10.6563 6.13509 12.8248 6.13509 15.5C6.13509 18.1752 8.30364 20.3438 10.9788 20.3438C11.1606 20.3438 11.3402 20.3338 11.5168 20.3142L14.8146 23.6122C14.9046 23.7022 15.0114 23.7735 15.1289 23.8222C15.2465 23.8709 15.3724 23.896 15.4997 23.896C15.6269 23.896 15.7529 23.8709 15.8704 23.8222C15.988 23.7735 16.0948 23.7022 16.1847 23.6122L19.4825 20.3142C19.6592 20.3338 19.8387 20.3438 20.0205 20.3438C22.6957 20.3438 24.8643 18.1752 24.8643 15.5C24.8643 12.8248 22.6957 10.6563 20.0205 10.6563C17.9597 10.6563 16.1994 11.9433 15.4997 13.7574C14.7999 11.9433 13.0397 10.6563 10.9788 10.6563ZM17.4504 19.6064C16.5622 19.0495 15.878 18.2203 15.4997 17.2427C15.1214 18.2203 14.4371 19.0495 13.5489 19.6064L15.4997 21.5571L17.4504 19.6064ZM20.0205 12.5938C18.4155 12.5938 17.1143 13.895 17.1143 15.5C17.1143 17.1051 18.4155 18.4063 20.0205 18.4063C21.6256 18.4063 22.9268 17.1051 22.9268 15.5C22.9268 13.895 21.6256 12.5938 20.0205 12.5938ZM12.2705 15.5C12.2705 15.8426 12.1344 16.1712 11.8922 16.4134C11.65 16.6556 11.3214 16.7917 10.9788 16.7917C10.6363 16.7917 10.3077 16.6556 10.0655 16.4134C9.82326 16.1712 9.68717 15.8426 9.68717 15.5C9.68717 15.1575 9.82326 14.8289 10.0655 14.5867C10.3077 14.3445 10.6363 14.2084 10.9788 14.2084C11.3214 14.2084 11.65 14.3445 11.8922 14.5867C12.1344 14.8289 12.2705 15.1575 12.2705 15.5ZM20.0205 16.7917C20.3631 16.7917 20.6916 16.6556 20.9339 16.4134C21.1761 16.1712 21.3122 15.8426 21.3122 15.5C21.3122 15.1575 21.1761 14.8289 20.9339 14.5867C20.6916 14.3445 20.3631 14.2084 20.0205 14.2084C19.6779 14.2084 19.3494 14.3445 19.1072 14.5867C18.8649 14.8289 18.7288 15.1575 18.7288 15.5C18.7288 15.8426 18.8649 16.1712 19.1072 16.4134C19.3494 16.6556 19.6779 16.7917 20.0205 16.7917Z" fill="white"/>
</svg>
