<svg width="31" height="31" viewBox="0 0 31 31" fill="none" xmlns="http://www.w3.org/2000/svg">
<path d="M24.6058 6.34207C23.4214 5.14613 22.0109 4.19786 20.4563 3.55254C18.9018 2.90722 17.2344 2.57775 15.5512 2.58332C8.49871 2.58332 2.75079 8.33124 2.75079 15.3837C2.75079 17.6442 3.34496 19.84 4.45579 21.7775L2.64746 28.4167L9.42871 26.6342C11.3016 27.6546 13.407 28.1971 15.5512 28.1971C22.6037 28.1971 28.3516 22.4492 28.3516 15.3967C28.3516 11.9737 27.0212 8.75749 24.6058 6.34207ZM15.5512 26.0271C13.6395 26.0271 11.7666 25.5104 10.1262 24.5417L9.73871 24.3092L5.70871 25.3683L6.78079 21.4417L6.52246 21.0412C5.46013 19.3454 4.89616 17.3849 4.89496 15.3837C4.89496 9.51957 9.67413 4.7404 15.5383 4.7404C18.38 4.7404 21.0537 5.85124 23.0558 7.86624C24.0473 8.85289 24.833 10.0266 25.3674 11.3193C25.9018 12.612 26.1741 13.9979 26.1687 15.3967C26.1945 21.2608 21.4154 26.0271 15.5512 26.0271ZM21.3895 18.0704C21.0666 17.9154 19.4908 17.1404 19.2066 17.0242C18.9095 16.9208 18.7029 16.8692 18.4833 17.1792C18.2637 17.5021 17.6566 18.2254 17.4758 18.4321C17.295 18.6517 17.1012 18.6775 16.7783 18.5096C16.4554 18.3546 15.422 18.0058 14.2079 16.9208C13.252 16.0683 12.6191 15.0221 12.4254 14.6992C12.2445 14.3762 12.3995 14.2083 12.5675 14.0404C12.7095 13.8983 12.8904 13.6658 13.0454 13.485C13.2004 13.3042 13.265 13.1621 13.3683 12.9554C13.4716 12.7358 13.42 12.555 13.3425 12.4C13.265 12.245 12.6191 10.6692 12.3608 10.0233C12.1025 9.40332 11.8312 9.48082 11.6375 9.4679H11.0175C10.7979 9.4679 10.462 9.5454 10.165 9.86832C9.88079 10.1912 9.05413 10.9662 9.05413 12.5421C9.05413 14.1179 10.2037 15.6421 10.3587 15.8487C10.5137 16.0683 12.6191 19.2975 15.8225 20.6796C16.5845 21.0154 17.1787 21.2092 17.6437 21.3512C18.4058 21.5967 19.1033 21.5579 19.6587 21.4804C20.2787 21.39 21.5575 20.7054 21.8158 19.9562C22.087 19.2071 22.087 18.5742 21.9966 18.4321C21.9062 18.29 21.7125 18.2254 21.3895 18.0704Z" fill="white"/>
</svg>
