<svg width="47" height="65" viewBox="0 0 47 65" fill="none" xmlns="http://www.w3.org/2000/svg">
<path d="M29.8379 64.4141L23.6504 61.8389L23.5 61.7764L23.3496 61.8389L17.1631 64.4141V50.3574C18.9599 50.78 20.7933 51.0254 22.6377 51.082L23.5 51.0947C25.6347 51.0958 27.761 50.8459 29.8379 50.3574V64.4141ZM38.4893 60.0137L34.4648 58.3389V48.8262C35.8638 48.2194 37.2097 47.4984 38.4893 46.6699V60.0137ZM8.51172 46.6709C9.79075 47.499 11.1368 48.2186 12.5352 48.8252V58.2383L8.51172 59.9131V46.6709ZM23.5 0.390625C36.2031 0.390625 46.539 10.7257 46.5391 23.4287C46.5391 36.1318 36.203 46.4678 23.5 46.4678C10.7971 46.4677 0.461914 36.1318 0.461914 23.4287C0.462086 10.7258 10.7972 0.390727 23.5 0.390625ZM23.5 4.36816C13.0427 4.36827 4.53525 12.8756 4.53516 23.333C4.53516 33.7904 13.0427 42.2977 23.5 42.2979C33.9575 42.2979 42.4648 33.7905 42.4648 23.333C42.4648 12.8756 33.9574 4.36816 23.5 4.36816ZM23.5 8.99609C31.4053 8.99609 37.8379 15.4277 37.8379 23.333C37.8379 31.2383 31.4052 37.6699 23.5 37.6699C15.5949 37.6698 9.16309 31.2384 9.16309 23.333C9.16318 15.4277 15.595 8.9962 23.5 8.99609ZM23.1494 13.126L20.2139 19.0742L13.6494 20.0283L12.8662 20.1426L13.4336 20.6943L18.1826 25.3242L17.0625 31.8623L16.9287 32.6426L17.6289 32.2744L23.5 29.1865L29.3721 32.2744L30.0723 32.6426L29.9385 31.8623L28.8164 25.3242L33.5674 20.6943L34.1338 20.1426L33.3506 20.0283L26.7852 19.0742L23.8506 13.126L23.5 12.416L23.1494 13.126Z" fill="#E9BE00" stroke="#E9BE00" stroke-width="0.78125"/>
</svg>
