<svg width="61" height="45" viewBox="0 0 61 45" fill="none" xmlns="http://www.w3.org/2000/svg">
<path d="M38.625 1.33325C44.2386 1.33334 49.6224 3.56313 53.5918 7.53247C57.5613 11.502 59.791 16.8865 59.791 22.5002C59.7909 28.1139 57.5612 33.4976 53.5918 37.467C49.6224 41.4365 44.2386 43.6662 38.625 43.6663C33.0113 43.6663 27.6267 41.4366 23.6572 37.467C19.6879 33.4976 17.4581 28.1138 17.458 22.5002C17.458 16.8865 19.6877 11.502 23.6572 7.53247C27.6267 3.56295 33.0113 1.33325 38.625 1.33325ZM38.625 5.75024C34.1826 5.75024 29.9215 7.51428 26.7803 10.6555C23.639 13.7968 21.875 18.0579 21.875 22.5002C21.8751 26.9424 23.6392 31.2029 26.7803 34.344C29.9215 37.4852 34.1826 39.2502 38.625 39.2502C43.0673 39.2502 47.3276 37.4852 50.4688 34.344C53.6099 31.2028 55.3749 26.9425 55.375 22.5002C55.375 18.0579 53.61 13.7968 50.4688 10.6555C47.3276 7.51446 43.0672 5.75033 38.625 5.75024ZM3.41602 33.8333H13.4678C14.1686 35.3832 15.0214 36.8601 15.9863 38.2502H3.41602C2.83045 38.2502 2.26856 38.0168 1.85449 37.6028C1.44055 37.1887 1.20801 36.6268 1.20801 36.0413C1.20809 35.4557 1.44043 34.8938 1.85449 34.4797C2.26856 34.0657 2.83045 33.8333 3.41602 33.8333ZM39.4785 12.1663V22.1116L45.5811 28.2141L43.418 30.3772L36.416 23.3752V12.1663H39.4785ZM6.125 20.2913H11.1514L11.042 22.4749L11.041 22.5002L11.042 22.5247L11.1514 24.7083H6.125C5.53947 24.7083 4.97759 24.4757 4.56348 24.0618C4.14941 23.6477 3.9161 23.0858 3.91602 22.5002C3.91602 21.9146 4.14933 21.3529 4.56348 20.9387C4.97762 20.5246 5.53931 20.2913 6.125 20.2913ZM8.83301 6.75024H15.9854C15.0208 8.14003 14.1684 9.61677 13.4678 11.1663H8.83301C8.24732 11.1663 7.68563 10.9339 7.27148 10.5198C6.85734 10.1056 6.625 9.54394 6.625 8.95825C6.625 8.37257 6.85734 7.81087 7.27148 7.39673C7.68563 6.98259 8.24732 6.75024 8.83301 6.75024Z" fill="#E9BE00" stroke="#E9BE00"/>
</svg>
