<svg width="55" height="56" viewBox="0 0 55 56" fill="none" xmlns="http://www.w3.org/2000/svg">
<path d="M29.7637 1.56152C28.131 1.34553 26.864 1.36097 25.666 1.66309L25.4277 1.72754C24.1584 2.09205 23.0162 2.76639 21.6611 3.88477C20.2979 5.00993 18.748 6.55958 16.6494 8.6582L11.6934 13.6152C8.04226 17.2677 5.34014 19.9712 3.54492 22.3242C1.75849 24.6658 0.916992 26.6018 0.916992 28.71C0.91709 30.8194 1.75865 32.7553 3.54492 35.0967C5.34012 37.4497 8.04213 40.1535 11.6934 43.8047C15.3459 47.4572 18.05 50.1596 20.4033 51.9551C22.745 53.7416 24.6807 54.5829 26.79 54.583C28.8982 54.583 30.8348 53.7415 33.1768 51.9551C35.5301 50.1599 38.2337 47.4577 41.8848 43.8066L46.8418 38.8506C48.9403 36.7507 50.4894 35.2007 51.6143 33.8379C52.6626 32.5676 53.3209 31.4849 53.6982 30.3086L53.7695 30.0723C54.134 28.803 54.1679 27.477 53.9375 25.7354C53.7057 23.9833 53.2122 21.8479 52.5439 18.9561V18.9551L51.7773 15.6299C51.2158 13.1932 50.8023 11.4026 50.3252 10.0117C49.8519 8.63203 49.3296 7.68637 48.5723 6.92773C47.8152 6.16944 46.8695 5.64683 45.4893 5.17383C44.098 4.69706 42.3069 4.28426 39.8701 3.72266V3.72168L36.5449 2.95215C33.6515 2.28516 31.5156 1.79332 29.7637 1.56152ZM24.7705 23.7275C25.7748 23.7168 26.7738 23.9548 27.6943 24.3965C28.1247 24.1728 28.6115 24.0751 29.0986 24.1211C29.6874 24.1767 30.2382 24.4362 30.6553 24.8555C31.0724 25.275 31.3296 25.8278 31.3818 26.417C31.425 26.903 31.3254 27.3882 31.1006 27.8164C32.1381 29.9879 32.109 32.7185 30.167 34.6582C27.5605 37.2677 23.5701 36.4304 21.3213 34.1816C20.8759 33.7363 20.4637 33.6018 20.166 33.584C20.013 33.5749 19.884 33.5965 19.7871 33.6279C19.7387 33.6436 19.7004 33.6611 19.6729 33.6768C19.6593 33.6845 19.6487 33.6911 19.6416 33.6963C19.6384 33.6987 19.6363 33.7008 19.6348 33.7021H19.6338C19.6338 33.7021 19.6232 33.7137 19.6074 33.7412C19.5919 33.7683 19.5743 33.8063 19.5586 33.8545C19.5273 33.9508 19.5065 34.0796 19.5156 34.2324C19.5312 34.4931 19.6361 34.8421 19.9609 35.2246L20.1133 35.3896C20.6715 35.9478 21.2794 36.0364 21.5752 35.9746L21.5762 35.9736L21.8242 35.9355C22.4035 35.8753 22.9889 36.0165 23.4795 36.3398C24.0401 36.7094 24.4312 37.2866 24.5664 37.9443C24.7016 38.6022 24.5698 39.2869 24.2002 39.8477C23.8306 40.4084 23.2535 40.7994 22.5957 40.9346L22.5889 40.9355C21.2068 41.2002 19.7792 41.0052 18.5215 40.3857C18.0928 40.6062 17.6092 40.7034 17.125 40.6572C16.5373 40.6012 15.9878 40.3413 15.5713 39.9229C15.1548 39.5044 14.8979 38.9533 14.8447 38.3652C14.8008 37.8796 14.9003 37.3952 15.124 36.9668C14.0859 34.7948 14.1134 32.0646 16.0557 30.1221C18.6622 27.5155 22.6526 28.3528 24.9014 30.6016C25.3467 31.0469 25.759 31.1814 26.0566 31.1992C26.2095 31.2083 26.3387 31.1867 26.4355 31.1553C26.4839 31.1396 26.5223 31.1221 26.5498 31.1064C26.5631 31.0988 26.5731 31.0921 26.5801 31.0869L26.5898 31.0791C26.5932 31.0752 26.6027 31.0639 26.6152 31.042C26.6307 31.0149 26.6484 30.977 26.6641 30.9287C26.6955 30.832 26.7162 30.7021 26.707 30.5488C26.6891 30.2507 26.5543 29.8385 26.1094 29.3936L26.1035 29.3877L26.0986 29.3818C25.7592 29.0204 25.2905 28.8074 24.7949 28.7891L24.7959 28.7881C24.1326 28.7885 23.4953 28.5304 23.0215 28.0654C22.5424 27.5952 22.27 26.9535 22.2637 26.2822C22.2574 25.6109 22.518 24.9645 22.9883 24.4854C23.3997 24.0663 23.9418 23.8052 24.5205 23.7422L24.7705 23.7275ZM36.6943 13.6309C37.4713 13.631 38.2412 13.7836 38.959 14.0811C39.6767 14.3785 40.3286 14.8148 40.8779 15.3643C41.9873 16.4741 42.6106 17.9796 42.6104 19.5488C42.6099 21.1177 41.9864 22.6222 40.877 23.7314C39.7671 24.8409 38.2616 25.4641 36.6924 25.4639C35.1232 25.4636 33.6182 24.8403 32.5088 23.7305C31.9595 23.1809 31.5238 22.5285 31.2266 21.8105C30.9294 21.0927 30.7762 20.3229 30.7764 19.5459C30.7766 18.7691 30.9301 17.9999 31.2275 17.2822C31.525 16.5644 31.9612 15.9116 32.5107 15.3623C33.0602 14.8132 33.7129 14.3772 34.4307 14.0801C35.1484 13.783 35.9176 13.6307 36.6943 13.6309Z" fill="#E9BE00" stroke="#E9BE00"/>
</svg>
