<svg width="53" height="50" viewBox="0 0 53 50" fill="none" xmlns="http://www.w3.org/2000/svg">
<path d="M52.2627 36.6858L40.0879 48.8606L33.3164 41.4729L35.7666 39.0237L40.0732 43.3303L40.4268 42.9768L49.7588 33.6428L52.2627 36.6858ZM45.7568 9.45825L48.375 22.5481V25.4651C46.8167 24.9859 45.1708 24.7083 43.458 24.7083C40.0804 24.7083 36.9733 25.7105 34.3496 27.4163H29.417V32.3469C27.7104 34.9712 26.708 38.0796 26.708 41.4583C26.708 42.2141 26.7793 42.9477 26.876 43.6663H3.33301V27.4163H0.625V22.5481L3.24316 9.45825H45.7568ZM7.75 39.2502H25V27.4163H7.75V39.2502ZM45.667 1.33325V5.75024H3.33301V1.33325H45.667Z" fill="#E9BE00" stroke="#E9BE00"/>
</svg>
