<svg width="93" height="93" viewBox="0 0 93 93" fill="none" xmlns="http://www.w3.org/2000/svg">
<rect width="93" height="93" rx="46.5" fill="#FFF4EB"/>
<g clip-path="url(#clip0_19_1537)">
<path d="M20.6824 70.7079C20.48 70.6252 20.3068 70.4839 20.1852 70.3021C20.0637 70.1203 19.9992 69.9064 20 69.6877V34.3543C20.0015 32.8906 20.5836 31.4872 21.6187 30.4521C22.6537 29.4171 24.0571 28.835 25.5208 28.8335H26.625V27.7293C26.6265 26.2656 27.2086 24.8622 28.2437 23.8271C29.2787 22.7921 30.6821 22.21 32.1458 22.2085H67.4792C68.9429 22.21 70.3463 22.7921 71.3814 23.8271C72.4164 24.8622 72.9985 26.2656 73 27.7293V52.021C72.9985 53.4848 72.4164 54.8881 71.3814 55.9232C70.3463 56.9582 68.9429 57.5404 67.4792 57.5418H66.375V58.646C66.3735 60.1098 65.7914 61.5131 64.7564 62.5482C63.7213 63.5832 62.3179 64.1654 60.8542 64.1668H28.1863L21.8848 70.4683C21.7825 70.5711 21.6609 70.6527 21.5269 70.7082C21.3929 70.7637 21.2492 70.7922 21.1042 70.7918C20.9594 70.7923 20.816 70.7638 20.6824 70.7079ZM22.2083 34.3543V67.0222L26.9485 62.2831C27.0509 62.1804 27.1726 62.0988 27.3066 62.0431C27.4405 61.9874 27.5841 61.9587 27.7292 61.9585H60.8542C61.7327 61.9585 62.5752 61.6095 63.1964 60.9883C63.8177 60.3671 64.1667 59.5245 64.1667 58.646V34.3543C64.1667 33.4758 63.8177 32.6333 63.1964 32.0121C62.5752 31.3908 61.7327 31.0418 60.8542 31.0418H25.5208C24.6423 31.0418 23.7998 31.3908 23.1786 32.0121C22.5574 32.6333 22.2083 33.4758 22.2083 34.3543ZM27.7292 27.7293V28.8335H60.8542C62.3179 28.835 63.7213 29.4171 64.7564 30.4521C65.7914 31.4872 66.3735 32.8906 66.375 34.3543V56.4377H67.4792C68.6505 56.4377 69.7739 55.9723 70.6022 55.1441C71.4305 54.3158 71.8958 53.1924 71.8958 52.021V27.7293C71.8958 26.558 71.4305 25.4346 70.6022 24.6063C69.7739 23.778 68.6505 23.3127 67.4792 23.3127H32.1458C30.9745 23.3127 29.8511 23.778 29.0228 24.6063C28.1945 25.4346 27.7292 26.558 27.7292 27.7293ZM32.1458 50.9168C31.853 50.9168 31.5722 50.8005 31.3651 50.5934C31.158 50.3863 31.0417 50.1055 31.0417 49.8127C31.0417 49.5198 31.158 49.239 31.3651 49.0319C31.5722 48.8248 31.853 48.7085 32.1458 48.7085H54.2292C54.522 48.7085 54.8028 48.8248 55.0099 49.0319C55.217 49.239 55.3333 49.5198 55.3333 49.8127C55.3333 50.1055 55.217 50.3863 55.0099 50.5934C54.8028 50.8005 54.522 50.9168 54.2292 50.9168H32.1458ZM32.1458 44.2918C31.853 44.2918 31.5722 44.1755 31.3651 43.9684C31.158 43.7613 31.0417 43.4805 31.0417 43.1877C31.0417 42.8948 31.158 42.614 31.3651 42.4069C31.5722 42.1998 31.853 42.0835 32.1458 42.0835H54.2292C54.522 42.0835 54.8028 42.1998 55.0099 42.4069C55.217 42.614 55.3333 42.8948 55.3333 43.1877C55.3333 43.4805 55.217 43.7613 55.0099 43.9684C54.8028 44.1755 54.522 44.2918 54.2292 44.2918H32.1458Z" fill="#BC9849"/>
</g>
<defs>
<clipPath id="clip0_19_1537">
<rect width="53" height="53" fill="white" transform="translate(20 20)"/>
</clipPath>
</defs>
</svg>
