<svg width="38" height="37" viewBox="0 0 38 37" fill="none" xmlns="http://www.w3.org/2000/svg">
<path d="M4.91345 11.5614C6.19491 9.01124 8.16004 6.86748 10.5894 5.36953C13.0187 3.87158 15.8166 3.07842 18.6707 3.07861C22.8197 3.07861 26.3052 4.60429 28.9701 7.08908L24.5563 11.5045C22.9598 9.97878 20.9307 9.20132 18.6707 9.20132C14.6602 9.20132 11.2655 11.9109 10.057 15.5488C9.74911 16.4725 9.5736 17.4578 9.5736 18.4739C9.5736 19.49 9.74911 20.4753 10.057 21.399C11.2671 25.0384 14.6602 27.7465 18.6707 27.7465C20.7413 27.7465 22.5041 27.1999 23.8835 26.2762C24.6832 25.7497 25.3678 25.0665 25.896 24.2679C26.4242 23.4693 26.7849 22.5719 26.9564 21.6299H18.6707V15.675H33.17C33.3516 16.6819 33.4501 17.7318 33.4501 18.8234C33.4501 23.5128 31.7721 27.4601 28.8593 30.1389C26.3129 32.4913 22.8274 33.8692 18.6707 33.8692C16.6487 33.87 14.6464 33.4723 12.7782 32.6989C10.91 31.9255 9.21251 30.7916 7.78276 29.3618C6.35302 27.9321 5.21904 26.2346 4.44564 24.3664C3.67224 22.4982 3.27458 20.4959 3.27539 18.4739C3.27539 15.9891 3.86965 13.6398 4.91345 11.5614Z" fill="#D9D9D9"/>
</svg>
