<svg width="34" height="33" viewBox="0 0 34 33" fill="none" xmlns="http://www.w3.org/2000/svg">
<path d="M23.678 8.05176C24.5393 8.05176 25.2375 8.74999 25.2375 9.61133C25.2375 10.4727 24.5393 11.1709 23.678 11.1709C22.8166 11.1709 22.1184 10.4727 22.1184 9.61133C22.1184 8.75002 22.8167 8.0518 23.678 8.05176Z" fill="#D9D9D9" stroke="#D9D9D9"/>
<path d="M23.6781 4.11914C27.4678 4.11914 30.5436 7.19487 30.5436 10.9846V21.9693C30.5436 25.7591 27.4678 28.8348 23.6781 28.8348H12.6933C8.90361 28.8348 5.82788 25.7591 5.82788 21.9693V10.9846C5.82788 7.19487 8.90361 4.11914 12.6933 4.11914H18.1857H23.6781Z" stroke="#D9D9D9" stroke-width="2" stroke-linecap="round" stroke-linejoin="round"/>
<path d="M18.1857 10.9849C21.2203 10.9849 23.6781 13.4427 23.6781 16.4772C23.6781 19.5118 21.2203 21.9696 18.1857 21.9696C15.1512 21.9696 12.6934 19.5118 12.6934 16.4772C12.6934 13.4427 15.1512 10.9849 18.1857 10.9849Z" stroke="#D9D9D9" stroke-width="2" stroke-linecap="round" stroke-linejoin="round"/>
</svg>
