<svg width="39" height="38" viewBox="0 0 39 38" fill="none" xmlns="http://www.w3.org/2000/svg">
<path d="M30.3121 4.74365C31.1508 4.74365 31.9551 5.07682 32.5482 5.66986C33.1412 6.2629 33.4744 7.06724 33.4744 7.90593V30.0418C33.4744 30.8805 33.1412 31.6849 32.5482 32.2779C31.9551 32.871 31.1508 33.2041 30.3121 33.2041H8.17619C7.3375 33.2041 6.53317 32.871 5.94012 32.2779C5.34708 31.6849 5.01392 30.8805 5.01392 30.0418V7.90593C5.01392 7.06724 5.34708 6.2629 5.94012 5.66986C6.53317 5.07682 7.3375 4.74365 8.17619 4.74365H30.3121ZM29.5215 29.2513V20.8713C29.5215 19.5042 28.9785 18.1931 28.0118 17.2265C27.0452 16.2598 25.7341 15.7167 24.367 15.7167C23.0231 15.7167 21.4577 16.5389 20.6988 17.7722V16.0172H16.2874V29.2513H20.6988V21.4563C20.6988 20.2388 21.6791 19.2427 22.8966 19.2427C23.4837 19.2427 24.0467 19.4759 24.4618 19.891C24.877 20.3062 25.1102 20.8692 25.1102 21.4563V29.2513H29.5215ZM11.1487 13.5348C11.8532 13.5348 12.5289 13.2549 13.027 12.7568C13.5252 12.2586 13.805 11.583 13.805 10.8785C13.805 9.40801 12.6192 8.20634 11.1487 8.20634C10.44 8.20634 9.76037 8.48787 9.25925 8.98899C8.75813 9.49011 8.47661 10.1698 8.47661 10.8785C8.47661 12.3489 9.67827 13.5348 11.1487 13.5348ZM13.3465 29.2513V16.0172H8.96676V29.2513H13.3465Z" fill="#D9D9D9"/>
</svg>
