<svg width="24" height="27" viewBox="0 0 24 27" fill="none" xmlns="http://www.w3.org/2000/svg">
<path d="M11.9654 26.6667C11.5965 26.6667 11.2803 26.5778 11.0167 26.4C10.7532 26.2222 10.5556 25.9889 10.4238 25.7C9.92312 24.4556 9.29067 23.2889 8.52645 22.2C7.78858 21.1111 6.74767 19.8333 5.4037 18.3667C4.05974 16.9 2.96612 15.5 2.12284 14.1667C1.30592 12.8333 0.897461 11.2222 0.897461 9.33333C0.897461 6.73333 1.96473 4.53333 4.09926 2.73333C6.26015 0.911111 8.88221 0 11.9654 0C15.0486 0 17.6575 0.911111 19.7921 2.73333C21.9529 4.53333 23.0334 6.73333 23.0334 9.33333C23.0334 11.3556 22.5722 13.0444 21.6499 14.4C20.7539 15.7333 19.713 17.0556 18.5271 18.3667C17.1041 19.9667 16.0237 21.3 15.2858 22.3667C14.5743 23.4111 13.9814 24.5222 13.507 25.7C13.3753 26.0111 13.1645 26.2556 12.8746 26.4333C12.6111 26.5889 12.308 26.6667 11.9654 26.6667ZM11.9654 12.6667C13.0722 12.6667 14.0077 12.3444 14.7719 11.7C15.5362 11.0556 15.9183 10.2667 15.9183 9.33333C15.9183 8.4 15.5362 7.61111 14.7719 6.96666C14.0077 6.32222 13.0722 6 11.9654 6C10.8586 6 9.92312 6.32222 9.15891 6.96666C8.39469 7.61111 8.01258 8.4 8.01258 9.33333C8.01258 10.2667 8.39469 11.0556 9.15891 11.7C9.92312 12.3444 10.8586 12.6667 11.9654 12.6667Z" fill="#D9D9D9"/>
</svg>
