<svg width="93" height="93" viewBox="0 0 93 93" fill="none" xmlns="http://www.w3.org/2000/svg">
<rect width="93" height="93" rx="46.5" fill="#FFF4EB"/>
<path d="M28.1666 51.0833H33.6552C34.3289 51.0833 34.9935 51.2345 35.5962 51.5279L40.2758 53.792C40.8785 54.0831 41.5431 54.2343 42.2191 54.2343H44.607C46.917 54.2343 48.7916 56.047 48.7916 58.2837C48.7916 58.3754 48.7298 58.4533 48.6404 58.4785L42.8173 60.0895C41.7724 60.3782 40.6582 60.2772 39.6823 59.8054L34.6795 57.3854M37.3333 36.9643C37.3333 32.1701 41.6783 27.431 44.7262 24.697C45.5289 23.9784 46.5684 23.5811 47.6458 23.5811C48.7232 23.5811 49.7627 23.9784 50.5654 24.697C53.6133 27.4333 57.9583 32.1679 57.9583 36.9666C57.9583 41.6645 54.0533 46.4999 47.6458 46.4999C41.2383 46.4999 37.3333 41.6645 37.3333 36.9643Z" stroke="#BC9849" stroke-width="1.5" stroke-linecap="round" stroke-linejoin="round"/>
<path d="M48.7916 56.8126L59.3172 53.579C60.2336 53.2979 61.2153 53.3133 62.1224 53.6232C63.0294 53.9331 63.8154 54.5216 64.3681 55.3047C65.2137 56.4734 64.87 58.1509 63.637 58.8613L46.4152 68.8003C45.8767 69.1119 45.2804 69.3105 44.6626 69.3842C44.0448 69.4579 43.4185 69.405 42.8218 69.2288L28.1666 64.8792" stroke="#BC9849" stroke-width="1.5" stroke-linecap="round" stroke-linejoin="round"/>
</svg>
