<svg width="69" height="69" viewBox="0 0 69 69" fill="none" xmlns="http://www.w3.org/2000/svg">
<path d="M38.8125 63.25C33.6375 63.25 29.2292 61.4292 25.5875 57.7875C21.9458 54.1458 20.125 49.7375 20.125 44.5625V42.9094C16.0042 42.2385 12.5781 40.3094 9.84687 37.122C7.11562 33.9346 5.75 30.1856 5.75 25.875V8.625H14.375V5.75H20.125V17.25H14.375V14.375H11.5V25.875C11.5 29.0375 12.626 31.7448 14.8781 33.9969C17.1302 36.249 19.8375 37.375 23 37.375C26.1625 37.375 28.8698 36.249 31.1219 33.9969C33.374 31.7448 34.5 29.0375 34.5 25.875V14.375H31.625V17.25H25.875V5.75H31.625V8.625H40.25V25.875C40.25 30.1875 38.8844 33.9375 36.1531 37.1249C33.4219 40.3123 29.9958 42.2405 25.875 42.9094V44.5625C25.875 48.1562 27.1333 51.2114 29.6499 53.728C32.1665 56.2446 35.2207 57.5019 38.8125 57.5C42.4043 57.4981 45.4595 56.2407 47.978 53.728C50.4965 51.2152 51.7538 48.1601 51.75 44.5625V39.7469C50.0729 39.1719 48.6958 38.1417 47.6186 36.6562C46.5415 35.1708 46.0019 33.4937 46 31.625C46 29.2292 46.8385 27.1927 48.5156 25.5156C50.1927 23.8385 52.2292 23 54.625 23C57.0208 23 59.0573 23.8385 60.7344 25.5156C62.4115 27.1927 63.25 29.2292 63.25 31.625C63.25 33.4937 62.7114 35.1708 61.6343 36.6562C60.5571 38.1417 59.179 39.1719 57.5 39.7469V44.5625C57.5 49.7375 55.6792 54.1458 52.0375 57.7875C48.3958 61.4292 43.9875 63.25 38.8125 63.25Z" fill="#BC9849"/>
</svg>
