<svg width="93" height="93" viewBox="0 0 93 93" fill="none" xmlns="http://www.w3.org/2000/svg">
<rect width="93" height="93" rx="46.5" fill="#FFF4EB"/>
<path d="M53.75 50.1399C53.75 54.5497 50.2806 58.125 46 58.125C41.7194 58.125 38.25 54.5497 38.25 50.1399C38.25 43.1546 46 34.875 46 34.875C46 34.875 53.75 43.1546 53.75 50.1399Z" fill="#BC9849"/>
<path fill-rule="evenodd" clip-rule="evenodd" d="M46 55.5417C48.781 55.5417 51.1667 53.196 51.1667 50.1399C51.1667 47.4533 49.6089 44.1815 47.7179 41.3075C47.175 40.4858 46.602 39.6844 46 38.905C45.398 39.6844 44.825 40.4858 44.2821 41.3075C42.3924 44.1827 40.8333 47.452 40.8333 50.1412C40.8333 53.196 43.219 55.5417 46 55.5417ZM44.317 36.8642C42.0372 39.7407 38.25 45.2561 38.25 50.1399C38.25 54.5497 41.7194 58.125 46 58.125C50.2806 58.125 53.75 54.5497 53.75 50.1399C53.75 45.2574 49.9628 39.742 47.6843 36.8642C46.7014 35.6242 46 34.875 46 34.875C46 34.875 45.2973 35.6242 44.317 36.8642Z" fill="#BC9849"/>
<path fill-rule="evenodd" clip-rule="evenodd" d="M34.1942 29.5366C30.1382 32.3564 27.2265 36.5358 25.9865 41.3175C24.7465 46.0992 25.2602 51.1668 27.4347 55.6024C29.6091 60.0379 33.3004 63.5478 37.8397 65.4963C42.379 67.4448 47.4661 67.7029 52.1793 66.2238L52.9518 68.6883C47.6496 70.3515 41.9271 70.0607 36.8208 67.8686C31.7146 65.6764 27.5624 61.7279 25.1164 56.7382C22.6704 51.7486 22.0923 46.0479 23.487 40.6689C24.8817 35.2898 28.1568 30.5882 32.7191 27.4157L34.1942 29.5366ZM57.8058 63.4635C61.8596 60.6428 64.7692 56.4637 66.0079 51.6831C67.2465 46.9024 66.7323 41.8362 64.5583 37.402C62.3844 32.9677 58.6944 29.4585 54.1566 27.5098C49.6187 25.5611 44.5331 25.3018 39.8207 26.7789L39.0483 24.3131C44.3499 22.6515 50.0713 22.9434 55.1763 25.1359C60.2814 27.3284 64.4325 31.2765 66.878 36.2652C69.3236 41.254 69.9018 46.9536 68.5079 52.3318C67.1141 57.7101 63.8404 62.4114 59.2796 65.5844L57.8058 63.4635Z" fill="#BC9849"/>
<path fill-rule="evenodd" clip-rule="evenodd" d="M33.0833 28.4168H24.0416V25.8335H35.6666V37.4585H33.0833V28.4168ZM58.9166 64.5835H67.9583V67.1668H56.3333V55.5418H58.9166V64.5835Z" fill="#BC9849"/>
</svg>
