<svg width="63" height="67" viewBox="0 0 63 67" fill="none" xmlns="http://www.w3.org/2000/svg">
<path d="M16.4063 55.247C14.2037 55.2413 12.0521 54.5423 10.2224 53.2383C8.39282 51.9342 6.96709 50.0833 6.12495 47.9189C5.28281 45.7545 5.06193 43.3734 5.49014 41.0758C5.91836 38.7781 6.97651 36.6666 8.53125 35.0074L31.1325 10.9991L30.5287 10.357C30.2827 10.0975 30.0874 9.78873 29.9542 9.44854C29.8209 9.10835 29.7523 8.74347 29.7523 8.37493C29.7523 8.0064 29.8209 7.64152 29.9542 7.30132C30.0874 6.96113 30.2827 6.65237 30.5287 6.39285C31.0206 5.8729 31.6859 5.58105 32.3794 5.58105C33.0729 5.58105 33.7382 5.8729 34.23 6.39285L36.6975 9.01702C37.1864 9.54007 37.4608 10.2476 37.4608 10.9851C37.4608 11.7227 37.1864 12.4302 36.6975 12.9533L12.2325 39.0833C11.247 40.2841 10.7275 41.8385 10.7795 43.4315C10.8315 45.0245 11.451 46.5368 12.5125 47.6621C13.5739 48.7874 14.9979 49.4415 16.496 49.4918C17.994 49.542 19.454 48.9847 20.58 47.9328L45.0187 21.9424C45.5106 21.4225 46.1759 21.1306 46.8694 21.1306C47.5629 21.1306 48.2282 21.4225 48.72 21.9424C48.966 22.202 49.1613 22.5107 49.2946 22.8509C49.4279 23.1911 49.4965 23.556 49.4965 23.9245C49.4965 24.293 49.4279 24.6579 49.2946 24.9981C49.1613 25.3383 48.966 25.6471 48.72 25.9066L24.2812 51.7853C23.2476 52.8854 22.0198 53.7575 20.6684 54.3515C19.317 54.9456 17.8686 55.2499 16.4063 55.247Z" fill="#BC9849"/>
<path d="M49.5338 29.4521C49.1864 29.4506 48.8429 29.3758 48.523 29.232C48.203 29.0883 47.9131 28.8784 47.67 28.6146L39.9263 20.3792C39.4373 19.8562 39.1629 19.1486 39.1629 18.4111C39.1629 17.6736 39.4373 16.966 39.9263 16.443C40.1703 16.1813 40.4606 15.9736 40.7805 15.8319C41.1004 15.6902 41.4435 15.6172 41.79 15.6172C42.1365 15.6172 42.4796 15.6902 42.7995 15.8319C43.1194 15.9736 43.4097 16.1813 43.6537 16.443L51.3975 24.818C51.7677 25.2084 52.0202 25.7073 52.1227 26.251C52.2253 26.7946 52.1733 27.3585 51.9734 27.8706C51.7734 28.3827 51.4346 28.8199 51.0001 29.1264C50.5656 29.433 50.0551 29.5949 49.5338 29.5917V29.4521Z" fill="#BC9849"/>
<path d="M39.585 34.3654C39.2395 34.3675 38.8971 34.2971 38.5772 34.1581C38.2574 34.0192 37.9665 33.8145 37.7212 33.5558L32.6288 28.1399C32.1398 27.6169 31.8654 26.9093 31.8654 26.1718C31.8654 25.4343 32.1398 24.7268 32.6288 24.2037C32.8728 23.942 33.1631 23.7344 33.483 23.5926C33.8029 23.4509 34.146 23.3779 34.4925 23.3779C34.839 23.3779 35.1821 23.4509 35.502 23.5926C35.8219 23.7344 36.1122 23.942 36.3563 24.2037L41.4225 29.5916C41.7911 29.9804 42.043 30.4767 42.1464 31.0178C42.2498 31.5588 42.2 32.1204 42.0033 32.6313C41.8066 33.1423 41.4719 33.5798 41.0415 33.8884C40.611 34.1971 40.1042 34.3631 39.585 34.3654Z" fill="#BC9849"/>
<path d="M32.4188 41.875C32.0733 41.8772 31.7308 41.8067 31.411 41.6678C31.0912 41.5289 30.8003 41.3242 30.555 41.0655L25.4625 35.7613C24.9736 35.2382 24.6992 34.5307 24.6992 33.7932C24.6992 33.0556 24.9736 32.3481 25.4625 31.825C25.7065 31.5634 25.9969 31.3557 26.3167 31.214C26.6366 31.0722 26.9797 30.9993 27.3262 30.9993C27.6728 30.9993 28.0159 31.0722 28.3358 31.214C28.6556 31.3557 28.946 31.5634 29.19 31.825L34.2563 37.213C34.6249 37.6018 34.8768 38.0981 34.9802 38.6391C35.0836 39.1802 35.0338 39.7417 34.8371 40.2527C34.6404 40.7636 34.3057 41.2011 33.8752 41.5098C33.4448 41.8184 32.9379 41.9844 32.4188 41.9867V41.875Z" fill="#BC9849"/>
<path d="M25.2525 49.6078C24.907 49.6099 24.5646 49.5395 24.2447 49.4006C23.9249 49.2617 23.634 49.0569 23.3888 48.7982L18.375 43.3824C17.8861 42.8593 17.6117 42.1518 17.6117 41.4143C17.6117 40.6767 17.8861 39.9692 18.375 39.4461C18.619 39.1845 18.9094 38.9768 19.2292 38.8351C19.5491 38.6933 19.8922 38.6204 20.2388 38.6204C20.5853 38.6204 20.9284 38.6933 21.2483 38.8351C21.5681 38.9768 21.8585 39.1845 22.1025 39.4461L27.1688 44.834C27.5374 45.2228 27.7893 45.7192 27.8927 46.2602C27.9961 46.8013 27.9463 47.3628 27.7496 47.8738C27.5529 48.3847 27.2182 48.8222 26.7877 49.1309C26.3573 49.4395 25.8504 49.6055 25.3312 49.6078H25.2525Z" fill="#BC9849"/>
<path d="M49.2975 61.4167C47.1019 61.4541 44.982 60.5641 43.4025 58.9418C41.8229 57.3196 40.9127 55.0974 40.8713 52.7626C40.8713 46.7047 46.83 40.5351 47.5125 39.8372C47.9993 39.3504 48.6424 39.0793 49.3106 39.0793C49.9788 39.0793 50.6219 39.3504 51.1087 39.8372C51.7912 40.5351 57.75 46.7047 57.75 52.7626C57.7295 53.9211 57.4946 55.064 57.0587 56.126C56.6228 57.188 55.9944 58.1482 55.2095 58.9519C54.4246 59.7555 53.4985 60.3868 52.4841 60.8098C51.4697 61.2327 50.3869 61.439 49.2975 61.4167ZM49.2975 46.0067C47.6325 47.8741 46.5269 50.2256 46.1212 52.7626C46.1935 53.6091 46.5608 54.3962 47.1509 54.9694C47.7411 55.5426 48.5114 55.8604 49.3106 55.8604C50.1098 55.8604 50.8802 55.5426 51.4703 54.9694C52.0604 54.3962 52.4277 53.6091 52.5 52.7626C52.0764 50.2261 50.963 47.8773 49.2975 46.0067Z" fill="#BC9849"/>
</svg>
