<svg width="93" height="93" viewBox="0 0 93 93" fill="none" xmlns="http://www.w3.org/2000/svg">
<rect width="93" height="93" rx="46.5" fill="#FFF4EB"/>
<path d="M53.3641 66.8886C52.2806 63.8746 48.4004 53.7574 46.7916 49.5719C43.7584 51.5986 40.3731 53.5182 37.1336 54.8739C36.1271 58.3939 34.1251 65.0737 33.1571 65.9646C31.4961 67.4964 30.8691 67.2984 30.6134 65.1974C30.3576 63.0964 29.2796 56.2984 29.2796 56.2984C29.2796 56.2984 23.3341 52.9462 21.4696 51.9864C19.6051 51.0267 19.6354 50.3612 21.6264 49.3079C22.7869 48.6947 29.6756 49.0742 33.2919 49.3217C35.6596 46.7064 38.6021 44.1462 41.5226 41.9544C38.1814 38.9954 30.1101 31.8482 27.6791 29.7884C25.5451 27.9789 27.8964 27.5967 27.8964 27.5967C28.9689 27.4042 31.2569 27.2337 32.3734 27.5719C39.3144 29.6702 50.0889 33.2589 52.6216 34.1059L55.8171 31.8482C68.7476 22.6907 72.0064 24.7174 72.6224 25.6057C73.2384 26.4939 74.0056 30.2834 61.0751 39.4437L57.8851 41.7069C57.8054 44.4019 57.4534 55.8722 57.0299 63.1872C56.9611 64.3642 56.0206 66.4817 55.4761 67.4332C55.4734 67.4332 54.3129 69.5369 53.3641 66.8886Z" fill="#BC9849"/>
</svg>
