<svg width="31" height="31" viewBox="0 0 31 31" fill="none" xmlns="http://www.w3.org/2000/svg">
<path d="M24.6063 6.34232C23.4219 5.14637 22.0114 4.19811 20.4568 3.55278C18.9023 2.90746 17.2348 2.57799 15.5517 2.58357C8.4992 2.58357 2.75128 8.33148 2.75128 15.384C2.75128 17.6444 3.34545 19.8402 4.45628 21.7777L2.64795 28.4169L9.4292 26.6344C11.3021 27.6548 13.4075 28.1973 15.5517 28.1973C22.6042 28.1973 28.3521 22.4494 28.3521 15.3969C28.3521 11.974 27.0217 8.75773 24.6063 6.34232ZM15.5517 26.0273C13.64 26.0273 11.7671 25.5106 10.1267 24.5419L9.7392 24.3094L5.7092 25.3686L6.78128 21.4419L6.52295 21.0415C5.46061 19.3456 4.89664 17.3851 4.89545 15.384C4.89545 9.51982 9.67461 4.74065 15.5388 4.74065C18.3804 4.74065 21.0542 5.85148 23.0563 7.86648C24.0478 8.85314 24.8335 10.0268 25.3679 11.3195C25.9022 12.6122 26.1746 13.9981 26.1692 15.3969C26.195 21.2611 21.4159 26.0273 15.5517 26.0273ZM21.39 18.0706C21.0671 17.9156 19.4913 17.1406 19.2071 17.0244C18.91 16.9211 18.7034 16.8694 18.4838 17.1794C18.2642 17.5023 17.6571 18.2256 17.4763 18.4323C17.2954 18.6519 17.1017 18.6777 16.7788 18.5098C16.4559 18.3548 15.4225 18.0061 14.2084 16.9211C13.2525 16.0686 12.6196 15.0223 12.4259 14.6994C12.245 14.3765 12.4 14.2086 12.5679 14.0406C12.71 13.8986 12.8909 13.6661 13.0459 13.4852C13.2009 13.3044 13.2654 13.1623 13.3688 12.9556C13.4721 12.7361 13.4204 12.5552 13.3429 12.4002C13.2654 12.2452 12.6196 10.6694 12.3613 10.0236C12.1029 9.40357 11.8317 9.48107 11.6379 9.46815H11.0179C10.7984 9.46815 10.4625 9.54565 10.1654 9.86857C9.88128 10.1915 9.05462 10.9665 9.05462 12.5423C9.05462 14.1181 10.2042 15.6423 10.3592 15.849C10.5142 16.0686 12.6196 19.2977 15.8229 20.6798C16.585 21.0156 17.1792 21.2094 17.6442 21.3515C18.4063 21.5969 19.1038 21.5581 19.6592 21.4806C20.2792 21.3902 21.5579 20.7056 21.8163 19.9565C22.0875 19.2073 22.0875 18.5744 21.9971 18.4323C21.9067 18.2902 21.7129 18.2256 21.39 18.0706Z" fill="white"/>
</svg>
